<svg width="144" height="105" viewBox="0 0 144 105" fill="none" xmlns="http://www.w3.org/2000/svg">
<rect width="144" height="105" rx="5" fill="white"/>
<path d="M60.552 50.098C60.552 50.4713 60.4727 50.812 60.314 51.12C60.1647 51.4187 59.9267 51.6753 59.6 51.89C60.16 52.0767 60.5987 52.3707 60.916 52.772C61.2333 53.1733 61.392 53.682 61.392 54.298C61.392 54.69 61.322 55.0587 61.182 55.404C61.042 55.7493 60.8273 56.0527 60.538 56.314C60.2487 56.5753 59.8893 56.7853 59.46 56.944C59.0307 57.0933 58.5267 57.168 57.948 57.168C57.4347 57.168 56.9353 57.1493 56.45 57.112C55.9647 57.084 55.5587 57.0467 55.232 57V47.76C55.3347 47.7507 55.4793 47.746 55.666 47.746C55.8527 47.7367 56.0533 47.7273 56.268 47.718C56.4827 47.7087 56.6973 47.704 56.912 47.704C57.1267 47.6947 57.318 47.69 57.486 47.69C58.4753 47.69 59.2313 47.8953 59.754 48.306C60.286 48.7073 60.552 49.3047 60.552 50.098ZM57.878 52.646C57.7007 52.646 57.5233 52.6507 57.346 52.66C57.1687 52.66 57.0007 52.6647 56.842 52.674V55.796C57.01 55.8147 57.1827 55.824 57.36 55.824C57.5373 55.824 57.7193 55.824 57.906 55.824C58.4753 55.824 58.9187 55.684 59.236 55.404C59.5533 55.124 59.712 54.718 59.712 54.186C59.712 53.71 59.5673 53.3367 59.278 53.066C58.9887 52.786 58.522 52.646 57.878 52.646ZM57.752 49.006C57.5653 49.006 57.3973 49.0153 57.248 49.034C57.108 49.0433 56.9727 49.0573 56.842 49.076V51.47C56.954 51.4793 57.066 51.484 57.178 51.484C57.2993 51.484 57.4207 51.484 57.542 51.484C57.9527 51.484 58.2747 51.3487 58.508 51.078C58.7413 50.798 58.858 50.434 58.858 49.986C58.858 49.706 58.76 49.4727 58.564 49.286C58.3773 49.0993 58.1067 49.006 57.752 49.006ZM67.1784 47.69C67.9064 47.69 68.5504 47.816 69.1104 48.068C69.6704 48.32 70.1417 48.6653 70.5244 49.104C70.907 49.5333 71.1964 50.0327 71.3924 50.602C71.5884 51.1713 71.6864 51.7687 71.6864 52.394C71.6864 53.01 71.5884 53.6073 71.3924 54.186C71.2057 54.7553 70.9164 55.264 70.5244 55.712C70.1417 56.1507 69.661 56.5053 69.0824 56.776C68.513 57.0373 67.8457 57.168 67.0804 57.168C66.3337 57.168 65.685 57.042 65.1344 56.79C64.5837 56.538 64.1264 56.1973 63.7624 55.768C63.3984 55.3387 63.123 54.844 62.9364 54.284C62.759 53.7147 62.6704 53.1173 62.6704 52.492C62.6704 51.8293 62.7684 51.2087 62.9644 50.63C63.1697 50.042 63.4637 49.5333 63.8464 49.104C64.229 48.6653 64.7004 48.32 65.2604 48.068C65.8204 47.816 66.4597 47.69 67.1784 47.69ZM67.1084 55.796C67.6217 55.796 68.0557 55.712 68.4104 55.544C68.7744 55.3667 69.073 55.1287 69.3064 54.83C69.5397 54.522 69.7077 54.1627 69.8104 53.752C69.9224 53.3413 69.9784 52.9027 69.9784 52.436C69.9784 51.932 69.9224 51.4747 69.8104 51.064C69.6984 50.6533 69.5257 50.2987 69.2924 50C69.059 49.7013 68.7604 49.4727 68.3964 49.314C68.0417 49.146 67.6217 49.062 67.1364 49.062C66.6417 49.062 66.217 49.146 65.8624 49.314C65.517 49.4727 65.2324 49.6967 65.0084 49.986C64.7937 50.2753 64.635 50.6207 64.5324 51.022C64.439 51.4233 64.3924 51.8667 64.3924 52.352C64.3924 53.4907 64.6257 54.3493 65.0924 54.928C65.559 55.5067 66.231 55.796 67.1084 55.796ZM77.569 47.69C78.297 47.69 78.941 47.816 79.501 48.068C80.061 48.32 80.5323 48.6653 80.915 49.104C81.2977 49.5333 81.587 50.0327 81.783 50.602C81.979 51.1713 82.077 51.7687 82.077 52.394C82.077 53.01 81.979 53.6073 81.783 54.186C81.5963 54.7553 81.307 55.264 80.915 55.712C80.5323 56.1507 80.0517 56.5053 79.473 56.776C78.9037 57.0373 78.2363 57.168 77.471 57.168C76.7243 57.168 76.0757 57.042 75.525 56.79C74.9743 56.538 74.517 56.1973 74.153 55.768C73.789 55.3387 73.5137 54.844 73.327 54.284C73.1497 53.7147 73.061 53.1173 73.061 52.492C73.061 51.8293 73.159 51.2087 73.355 50.63C73.5603 50.042 73.8543 49.5333 74.237 49.104C74.6197 48.6653 75.091 48.32 75.651 48.068C76.211 47.816 76.8503 47.69 77.569 47.69ZM77.499 55.796C78.0123 55.796 78.4463 55.712 78.801 55.544C79.165 55.3667 79.4637 55.1287 79.697 54.83C79.9303 54.522 80.0983 54.1627 80.201 53.752C80.313 53.3413 80.369 52.9027 80.369 52.436C80.369 51.932 80.313 51.4747 80.201 51.064C80.089 50.6533 79.9163 50.2987 79.683 50C79.4497 49.7013 79.151 49.4727 78.787 49.314C78.4323 49.146 78.0123 49.062 77.527 49.062C77.0323 49.062 76.6077 49.146 76.253 49.314C75.9077 49.4727 75.623 49.6967 75.399 49.986C75.1843 50.2753 75.0257 50.6207 74.923 51.022C74.8297 51.4233 74.783 51.8667 74.783 52.352C74.783 53.4907 75.0163 54.3493 75.483 54.928C75.9497 55.5067 76.6217 55.796 77.499 55.796ZM85.6076 57H83.9976V47.76H85.6076V51.792C86.1396 51.288 86.6156 50.798 87.0356 50.322C87.4276 49.874 87.7823 49.44 88.0996 49.02C88.417 48.5907 88.6923 48.1707 88.9256 47.76H90.6896C90.279 48.32 89.887 48.8333 89.5136 49.3C89.1403 49.7667 88.7296 50.252 88.2816 50.756C88.1136 50.9427 87.941 51.134 87.7636 51.33C87.5863 51.526 87.4043 51.722 87.2176 51.918L91.3476 57H89.4856L86.1956 52.954L85.6076 53.5V57ZM97.5129 54.816L100.579 47.76H102.413V57H100.817V50.91L98.1569 57H96.8689L94.1389 50.91V57H92.5289V47.76H94.3629L97.5129 54.816ZM112.589 57H110.839L109.789 54.312H106.303L105.351 57H103.671L107.255 47.76H108.641L112.589 57ZM106.751 53.052H109.285L107.955 49.65L106.751 53.052ZM115.934 53.052C115.831 53.052 115.724 53.052 115.612 53.052C115.509 53.052 115.397 53.0473 115.276 53.038V57H113.666V47.76C113.815 47.7507 113.983 47.7413 114.17 47.732C114.366 47.7227 114.562 47.718 114.758 47.718C114.954 47.7087 115.136 47.704 115.304 47.704C115.481 47.6947 115.621 47.69 115.724 47.69C116.918 47.69 117.828 47.9187 118.454 48.376C119.079 48.824 119.392 49.482 119.392 50.35C119.392 50.9007 119.256 51.3953 118.986 51.834C118.715 52.2727 118.262 52.5993 117.628 52.814L121.016 57H119.154L115.934 53.052ZM115.864 49.034C115.789 49.034 115.7 49.034 115.598 49.034C115.495 49.034 115.388 49.0387 115.276 49.048V51.708H116.144C116.648 51.708 117.03 51.582 117.292 51.33C117.553 51.078 117.684 50.7187 117.684 50.252C117.684 49.832 117.553 49.524 117.292 49.328C117.04 49.132 116.564 49.034 115.864 49.034ZM123.766 57H122.156V47.76H123.766V51.792C124.298 51.288 124.774 50.798 125.194 50.322C125.586 49.874 125.94 49.44 126.258 49.02C126.575 48.5907 126.85 48.1707 127.084 47.76H128.848C128.437 48.32 128.045 48.8333 127.672 49.3C127.298 49.7667 126.888 50.252 126.44 50.756C126.272 50.9427 126.099 51.134 125.922 51.33C125.744 51.526 125.562 51.722 125.376 51.918L129.506 57H127.644L124.354 52.954L123.766 53.5V57ZM131.863 49.986C131.863 50.182 131.905 50.35 131.989 50.49C132.082 50.63 132.208 50.7513 132.367 50.854C132.526 50.9567 132.712 51.0547 132.927 51.148C133.151 51.232 133.398 51.3207 133.669 51.414C134.005 51.5353 134.336 51.6753 134.663 51.834C134.999 51.9833 135.298 52.1747 135.559 52.408C135.83 52.632 136.049 52.912 136.217 53.248C136.385 53.584 136.469 53.99 136.469 54.466C136.469 54.97 136.376 55.3947 136.189 55.74C136.012 56.0853 135.769 56.3653 135.461 56.58C135.153 56.7853 134.798 56.9347 134.397 57.028C133.996 57.1213 133.58 57.168 133.151 57.168C132.535 57.168 131.956 57.0933 131.415 56.944C130.883 56.7947 130.426 56.6127 130.043 56.398L130.463 54.886C130.818 55.1567 131.21 55.3807 131.639 55.558C132.078 55.7353 132.577 55.824 133.137 55.824C133.734 55.824 134.168 55.7213 134.439 55.516C134.71 55.3013 134.845 55.0167 134.845 54.662C134.845 54.3913 134.78 54.1627 134.649 53.976C134.518 53.78 134.355 53.6167 134.159 53.486C133.963 53.346 133.753 53.234 133.529 53.15C133.314 53.066 133.123 52.996 132.955 52.94C132.656 52.8467 132.353 52.7347 132.045 52.604C131.737 52.4733 131.452 52.3053 131.191 52.1C130.93 51.8853 130.715 51.6193 130.547 51.302C130.388 50.9847 130.309 50.588 130.309 50.112C130.309 49.664 130.384 49.286 130.533 48.978C130.692 48.67 130.902 48.4227 131.163 48.236C131.434 48.04 131.746 47.9 132.101 47.816C132.465 47.732 132.857 47.69 133.277 47.69C133.79 47.69 134.285 47.7413 134.761 47.844C135.246 47.9467 135.652 48.0727 135.979 48.222L135.601 49.706C135.433 49.594 135.251 49.496 135.055 49.412C134.859 49.328 134.654 49.258 134.439 49.202C134.234 49.146 134.024 49.104 133.809 49.076C133.604 49.0387 133.408 49.02 133.221 49.02C132.801 49.02 132.47 49.0993 132.227 49.258C131.984 49.4167 131.863 49.6593 131.863 49.986Z" fill="#5F5F60"/>
<circle cx="25.5" cy="52.5" r="17.5" fill="#4673E4" fill-opacity="0.1"/>
<path fill-rule="evenodd" clip-rule="evenodd" d="M19.6597 47.8844C19.5129 47.8844 19.3722 47.931 19.2685 48.0139C19.1647 48.0969 19.1064 48.2093 19.1064 48.3266V58.1135L23.5322 55.7548L27.958 58.1135V53.6331C27.958 53.5158 28.0163 53.4033 28.12 53.3204C28.2238 53.2375 28.3645 53.1909 28.5112 53.1909C28.6579 53.1909 28.7986 53.2375 28.9024 53.3204C29.0061 53.4033 29.0644 53.5158 29.0644 53.6331V59.7656L23.5322 56.8179L18 59.7656V48.3266C18 47.9748 18.1749 47.6373 18.4861 47.3886C18.7974 47.1398 19.2195 47 19.6597 47H24.0854C24.2322 47 24.3729 47.0466 24.4766 47.1295C24.5804 47.2124 24.6387 47.3249 24.6387 47.4422C24.6387 47.5595 24.5804 47.672 24.4766 47.7549C24.3729 47.8378 24.2322 47.8844 24.0854 47.8844H19.6597Z" fill="#4673E4"/>
<path fill-rule="evenodd" clip-rule="evenodd" d="M32.2243 48.0136C32.2758 48.0547 32.3167 48.1035 32.3446 48.1572C32.3725 48.2109 32.3868 48.2685 32.3868 48.3267C32.3868 48.3848 32.3725 48.4424 32.3446 48.4961C32.3167 48.5499 32.2758 48.5987 32.2243 48.6397L28.905 51.293C28.8536 51.3341 28.7926 51.3668 28.7253 51.3891C28.6581 51.4114 28.5861 51.4229 28.5133 51.4229C28.4406 51.4229 28.3685 51.4114 28.3013 51.3891C28.2341 51.3668 28.173 51.3341 28.1216 51.293L26.462 49.9664C26.4105 49.9252 26.3697 49.8764 26.3419 49.8227C26.3141 49.769 26.2997 49.7114 26.2997 49.6533C26.2997 49.5951 26.3141 49.5376 26.3419 49.4838C26.3697 49.4301 26.4105 49.3813 26.462 49.3402C26.5134 49.2991 26.5745 49.2665 26.6417 49.2442C26.7089 49.222 26.7809 49.2105 26.8537 49.2105C26.9264 49.2105 26.9984 49.222 27.0656 49.2442C27.1328 49.2665 27.1939 49.2991 27.2453 49.3402L28.5133 50.3546L31.441 48.0136C31.4923 47.9724 31.5534 47.9397 31.6206 47.9174C31.6878 47.8951 31.7599 47.8837 31.8326 47.8837C31.9054 47.8837 31.9775 47.8951 32.0447 47.9174C32.1119 47.9397 32.1729 47.9724 32.2243 48.0136Z" fill="#4673E4"/>
</svg>
