<svg width="170" height="82" viewBox="0 0 170 82" fill="none" xmlns="http://www.w3.org/2000/svg">
<path d="M83.224 49C81.768 49 80.672 48.624 79.936 47.872C79.216 47.104 78.856 45.984 78.856 44.512V39.064H76.96C76.8 39.064 76.664 39.008 76.552 38.896C76.44 38.768 76.384 38.624 76.384 38.464V37.096C76.384 36.936 76.44 36.8 76.552 36.688C76.664 36.576 76.8 36.52 76.96 36.52H78.856V32.536C78.856 32.36 78.912 32.224 79.024 32.128C79.136 32.016 79.272 31.96 79.432 31.96H81.376C81.552 31.96 81.688 32.016 81.784 32.128C81.896 32.224 81.952 32.36 81.952 32.536V36.52H84.952C85.128 36.52 85.264 36.576 85.36 36.688C85.472 36.784 85.528 36.92 85.528 37.096V38.464C85.528 38.64 85.472 38.784 85.36 38.896C85.248 39.008 85.112 39.064 84.952 39.064H81.952V44.272C81.952 44.96 82.072 45.48 82.312 45.832C82.552 46.184 82.952 46.36 83.512 46.36H85.168C85.328 46.36 85.464 46.416 85.576 46.528C85.688 46.64 85.744 46.776 85.744 46.936V48.424C85.744 48.584 85.688 48.72 85.576 48.832C85.48 48.944 85.344 49 85.168 49H83.224ZM88.4731 49C88.3131 49 88.1771 48.944 88.0651 48.832C87.9531 48.72 87.8971 48.584 87.8971 48.424V32.536C87.8971 32.36 87.9531 32.224 88.0651 32.128C88.1771 32.016 88.3131 31.96 88.4731 31.96H90.6091C90.7851 31.96 90.9211 32.016 91.0171 32.128C91.1291 32.224 91.1851 32.36 91.1851 32.536V38.008C92.1451 36.856 93.4411 36.28 95.0731 36.28C96.5451 36.28 97.7211 36.768 98.6011 37.744C99.4811 38.704 99.9211 40.016 99.9211 41.68V48.424C99.9211 48.584 99.8651 48.72 99.7531 48.832C99.6571 48.944 99.5211 49 99.3451 49H97.1851C97.0251 49 96.8891 48.944 96.7771 48.832C96.6651 48.72 96.6091 48.584 96.6091 48.424V41.824C96.6091 40.88 96.3771 40.152 95.9131 39.64C95.4651 39.112 94.8091 38.848 93.9451 38.848C93.0971 38.848 92.4251 39.112 91.9291 39.64C91.4331 40.168 91.1851 40.896 91.1851 41.824V48.424C91.1851 48.584 91.1291 48.72 91.0171 48.832C90.9211 48.944 90.7851 49 90.6091 49H88.4731ZM103.543 49C103.383 49 103.247 48.944 103.135 48.832C103.023 48.72 102.967 48.584 102.967 48.424V37.12C102.967 36.96 103.023 36.824 103.135 36.712C103.247 36.584 103.383 36.52 103.543 36.52H105.487C105.663 36.52 105.807 36.576 105.919 36.688C106.031 36.8 106.087 36.944 106.087 37.12V38.104C106.471 37.592 106.951 37.2 107.527 36.928C108.119 36.656 108.791 36.52 109.543 36.52H110.527C110.703 36.52 110.839 36.576 110.935 36.688C111.047 36.784 111.103 36.92 111.103 37.096V38.824C111.103 38.984 111.047 39.12 110.935 39.232C110.839 39.344 110.703 39.4 110.527 39.4H108.655C107.903 39.4 107.311 39.616 106.879 40.048C106.447 40.48 106.231 41.072 106.231 41.824V48.424C106.231 48.584 106.175 48.72 106.063 48.832C105.951 48.944 105.807 49 105.631 49H103.543ZM118.187 49.24C116.411 49.24 114.995 48.728 113.939 47.704C112.899 46.664 112.347 45.208 112.283 43.336L112.259 42.736L112.283 42.136C112.363 40.312 112.923 38.88 113.963 37.84C115.019 36.8 116.427 36.28 118.187 36.28C120.075 36.28 121.531 36.856 122.555 38.008C123.595 39.16 124.115 40.696 124.115 42.616V43.12C124.115 43.28 124.059 43.416 123.947 43.528C123.835 43.64 123.691 43.696 123.515 43.696H115.547V43.888C115.579 44.768 115.819 45.512 116.267 46.12C116.731 46.712 117.363 47.008 118.163 47.008C119.107 47.008 119.867 46.64 120.443 45.904C120.587 45.728 120.699 45.616 120.779 45.568C120.875 45.52 121.011 45.496 121.187 45.496H123.251C123.395 45.496 123.515 45.544 123.611 45.64C123.723 45.72 123.779 45.824 123.779 45.952C123.779 46.336 123.547 46.792 123.083 47.32C122.635 47.832 121.987 48.28 121.139 48.664C120.291 49.048 119.307 49.24 118.187 49.24ZM120.851 41.68V41.608C120.851 40.664 120.611 39.904 120.131 39.328C119.667 38.752 119.019 38.464 118.187 38.464C117.355 38.464 116.707 38.752 116.243 39.328C115.779 39.904 115.547 40.664 115.547 41.608V41.68H120.851ZM132.038 49.24C130.262 49.24 128.846 48.728 127.79 47.704C126.75 46.664 126.198 45.208 126.134 43.336L126.11 42.736L126.134 42.136C126.214 40.312 126.774 38.88 127.814 37.84C128.87 36.8 130.278 36.28 132.038 36.28C133.926 36.28 135.382 36.856 136.406 38.008C137.446 39.16 137.966 40.696 137.966 42.616V43.12C137.966 43.28 137.91 43.416 137.798 43.528C137.686 43.64 137.542 43.696 137.366 43.696H129.398V43.888C129.43 44.768 129.67 45.512 130.118 46.12C130.582 46.712 131.214 47.008 132.014 47.008C132.958 47.008 133.718 46.64 134.294 45.904C134.438 45.728 134.55 45.616 134.63 45.568C134.726 45.52 134.862 45.496 135.038 45.496H137.102C137.246 45.496 137.366 45.544 137.462 45.64C137.574 45.72 137.63 45.824 137.63 45.952C137.63 46.336 137.398 46.792 136.934 47.32C136.486 47.832 135.838 48.28 134.99 48.664C134.142 49.048 133.158 49.24 132.038 49.24ZM134.702 41.68V41.608C134.702 40.664 134.462 39.904 133.982 39.328C133.518 38.752 132.87 38.464 132.038 38.464C131.206 38.464 130.558 38.752 130.094 39.328C129.63 39.904 129.398 40.664 129.398 41.608V41.68H134.702ZM146.586 49.24C145.242 49.24 144.066 48.984 143.058 48.472C142.05 47.96 141.274 47.264 140.73 46.384C140.186 45.488 139.914 44.48 139.914 43.36C139.914 41.936 140.53 40.384 141.762 38.704L146.154 32.68C146.25 32.536 146.354 32.424 146.466 32.344C146.594 32.248 146.762 32.2 146.97 32.2H149.202C149.346 32.2 149.466 32.256 149.562 32.368C149.658 32.464 149.706 32.584 149.706 32.728C149.706 32.808 149.666 32.912 149.586 33.04L146.226 37.696C146.546 37.616 146.89 37.576 147.258 37.576C148.33 37.608 149.314 37.88 150.21 38.392C151.122 38.888 151.842 39.568 152.37 40.432C152.914 41.296 153.186 42.256 153.186 43.312C153.186 44.384 152.914 45.376 152.37 46.288C151.842 47.184 151.074 47.904 150.066 48.448C149.074 48.976 147.914 49.24 146.586 49.24ZM146.562 46.48C147.474 46.48 148.242 46.208 148.866 45.664C149.49 45.104 149.802 44.328 149.802 43.336C149.802 42.36 149.49 41.6 148.866 41.056C148.242 40.496 147.474 40.216 146.562 40.216C145.65 40.216 144.882 40.496 144.258 41.056C143.634 41.6 143.322 42.36 143.322 43.336C143.322 44.328 143.634 45.104 144.258 45.664C144.882 46.208 145.65 46.48 146.562 46.48ZM161.849 49.24C159.721 49.24 158.129 48.648 157.073 47.464C156.033 46.28 155.465 44.728 155.369 42.808C155.353 42.376 155.345 41.64 155.345 40.6C155.345 39.544 155.353 38.792 155.369 38.344C155.449 36.456 156.025 34.92 157.097 33.736C158.169 32.552 159.753 31.96 161.849 31.96C163.961 31.96 165.553 32.552 166.625 33.736C167.697 34.92 168.265 36.456 168.329 38.344C168.361 38.792 168.377 39.544 168.377 40.6C168.377 41.64 168.361 42.376 168.329 42.808C168.249 44.728 167.681 46.28 166.625 47.464C165.585 48.648 163.993 49.24 161.849 49.24ZM161.849 46.48C162.857 46.48 163.609 46.152 164.105 45.496C164.601 44.824 164.865 43.888 164.897 42.688C164.929 41.76 164.945 41.056 164.945 40.576C164.945 40.048 164.929 39.352 164.897 38.488C164.865 37.304 164.601 36.376 164.105 35.704C163.609 35.032 162.857 34.696 161.849 34.696C160.857 34.696 160.105 35.032 159.593 35.704C159.097 36.376 158.833 37.304 158.801 38.488C158.785 38.92 158.777 39.616 158.777 40.576C158.777 41.52 158.785 42.224 158.801 42.688C158.833 43.888 159.097 44.824 159.593 45.496C160.105 46.152 160.857 46.48 161.849 46.48Z" fill="#2468EB"/>
<g filter="url(#filter0_d_3074_2)">
<circle cx="41" cy="41" r="25" fill="#2468EB"/>
<circle cx="41.0017" cy="41" r="17.8571" fill="#859CD9" fill-opacity="0.47"/>
<circle cx="41.0017" cy="41" r="17.8571" fill="#859CD9" fill-opacity="0.47"/>
<circle cx="41.0017" cy="41" r="17.8571" fill="#859CD9" fill-opacity="0.47"/>
<path d="M40.9989 19.5714L59.5566 51.7143H22.4412L40.9989 19.5714Z" fill="white" fill-opacity="0.39"/>
<circle cx="40.9983" cy="41" r="7.14286" fill="white"/>
<circle cx="41" cy="41" r="5" fill="#2468EB"/>
</g>
<defs>
<filter id="filter0_d_3074_2" x="0" y="0" width="82" height="82" filterUnits="userSpaceOnUse" color-interpolation-filters="sRGB">
<feFlood flood-opacity="0" result="BackgroundImageFix"/>
<feColorMatrix in="SourceAlpha" type="matrix" values="0 0 0 0 0 0 0 0 0 0 0 0 0 0 0 0 0 0 127 0" result="hardAlpha"/>
<feOffset/>
<feGaussianBlur stdDeviation="8"/>
<feColorMatrix type="matrix" values="0 0 0 0 1 0 0 0 0 1 0 0 0 0 1 0 0 0 0.23 0"/>
<feBlend mode="normal" in2="BackgroundImageFix" result="effect1_dropShadow_3074_2"/>
<feBlend mode="normal" in="SourceGraphic" in2="effect1_dropShadow_3074_2" result="shape"/>
</filter>
</defs>
</svg>
