<svg width="144" height="105" viewBox="0 0 144 105" fill="none" xmlns="http://www.w3.org/2000/svg">
<rect width="144" height="105" rx="5" fill="white"/>
<path d="M57.266 54.55V47.76H58.876V57H56.902L52.842 50.224V57H51.232V47.76H53.206L57.266 54.55ZM65.2975 47.69C66.0255 47.69 66.6695 47.816 67.2295 48.068C67.7895 48.32 68.2608 48.6653 68.6435 49.104C69.0262 49.5333 69.3155 50.0327 69.5115 50.602C69.7075 51.1713 69.8055 51.7687 69.8055 52.394C69.8055 53.01 69.7075 53.6073 69.5115 54.186C69.3248 54.7553 69.0355 55.264 68.6435 55.712C68.2608 56.1507 67.7802 56.5053 67.2015 56.776C66.6322 57.0373 65.9648 57.168 65.1995 57.168C64.4528 57.168 63.8042 57.042 63.2535 56.79C62.7028 56.538 62.2455 56.1973 61.8815 55.768C61.5175 55.3387 61.2422 54.844 61.0555 54.284C60.8782 53.7147 60.7895 53.1173 60.7895 52.492C60.7895 51.8293 60.8875 51.2087 61.0835 50.63C61.2888 50.042 61.5828 49.5333 61.9655 49.104C62.3482 48.6653 62.8195 48.32 63.3795 48.068C63.9395 47.816 64.5788 47.69 65.2975 47.69ZM65.2275 55.796C65.7408 55.796 66.1748 55.712 66.5295 55.544C66.8935 55.3667 67.1922 55.1287 67.4255 54.83C67.6588 54.522 67.8268 54.1627 67.9295 53.752C68.0415 53.3413 68.0975 52.9027 68.0975 52.436C68.0975 51.932 68.0415 51.4747 67.9295 51.064C67.8175 50.6533 67.6448 50.2987 67.4115 50C67.1782 49.7013 66.8795 49.4727 66.5155 49.314C66.1608 49.146 65.7408 49.062 65.2555 49.062C64.7608 49.062 64.3362 49.146 63.9815 49.314C63.6362 49.4727 63.3515 49.6967 63.1275 49.986C62.9128 50.2753 62.7542 50.6207 62.6515 51.022C62.5582 51.4233 62.5115 51.8667 62.5115 52.352C62.5115 53.4907 62.7448 54.3493 63.2115 54.928C63.6782 55.5067 64.3502 55.796 65.2275 55.796ZM77.5274 49.16H74.8534V57H73.2434V49.16H70.5694V47.76H77.5274V49.16ZM83.4643 52.8H80.6643V55.6H84.6823V57H79.0543V47.76H84.4023V49.16H80.6643V51.4H83.4643V52.8ZM87.6404 49.986C87.6404 50.182 87.6824 50.35 87.7664 50.49C87.8598 50.63 87.9858 50.7513 88.1444 50.854C88.3031 50.9567 88.4898 51.0547 88.7044 51.148C88.9284 51.232 89.1758 51.3207 89.4464 51.414C89.7824 51.5353 90.1138 51.6753 90.4404 51.834C90.7764 51.9833 91.0751 52.1747 91.3364 52.408C91.6071 52.632 91.8264 52.912 91.9944 53.248C92.1624 53.584 92.2464 53.99 92.2464 54.466C92.2464 54.97 92.1531 55.3947 91.9664 55.74C91.7891 56.0853 91.5464 56.3653 91.2384 56.58C90.9304 56.7853 90.5758 56.9347 90.1744 57.028C89.7731 57.1213 89.3578 57.168 88.9284 57.168C88.3124 57.168 87.7338 57.0933 87.1924 56.944C86.6604 56.7947 86.2031 56.6127 85.8204 56.398L86.2404 54.886C86.5951 55.1567 86.9871 55.3807 87.4164 55.558C87.8551 55.7353 88.3544 55.824 88.9144 55.824C89.5118 55.824 89.9458 55.7213 90.2164 55.516C90.4871 55.3013 90.6224 55.0167 90.6224 54.662C90.6224 54.3913 90.5571 54.1627 90.4264 53.976C90.2958 53.78 90.1324 53.6167 89.9364 53.486C89.7404 53.346 89.5304 53.234 89.3064 53.15C89.0918 53.066 88.9004 52.996 88.7324 52.94C88.4338 52.8467 88.1304 52.7347 87.8224 52.604C87.5144 52.4733 87.2298 52.3053 86.9684 52.1C86.7071 51.8853 86.4924 51.6193 86.3244 51.302C86.1658 50.9847 86.0864 50.588 86.0864 50.112C86.0864 49.664 86.1611 49.286 86.3104 48.978C86.4691 48.67 86.6791 48.4227 86.9404 48.236C87.2111 48.04 87.5238 47.9 87.8784 47.816C88.2424 47.732 88.6344 47.69 89.0544 47.69C89.5678 47.69 90.0624 47.7413 90.5384 47.844C91.0238 47.9467 91.4298 48.0727 91.7564 48.222L91.3784 49.706C91.2104 49.594 91.0284 49.496 90.8324 49.412C90.6364 49.328 90.4311 49.258 90.2164 49.202C90.0111 49.146 89.8011 49.104 89.5864 49.076C89.3811 49.0387 89.1851 49.02 88.9984 49.02C88.5784 49.02 88.2471 49.0993 88.0044 49.258C87.7618 49.4167 87.6404 49.6593 87.6404 49.986Z" fill="#5F5F60"/>
<circle cx="25.5" cy="52.5" r="17.5" fill="#4673E4" fill-opacity="0.1"/>
<path d="M17 47V59.7656H26.5782L32.3445 54.9684V47H17ZM18.0403 47.8655H31.3041V53.7074H25.0623V58.9002H18.0403V47.8655ZM26.1473 58.9002H26.1026V54.5728H31.3041V54.61L26.1473 58.9002Z" fill="#4673E4"/>
</svg>
