<svg width="153" height="127" viewBox="0 0 153 127" fill="none" xmlns="http://www.w3.org/2000/svg">
<rect y="22" width="144" height="105" rx="5" fill="white"/>
<path d="M61.252 71.16H58.578V79H56.968V71.16H54.294V69.76H61.252V71.16ZM66.5221 69.69C67.2501 69.69 67.8941 69.816 68.4541 70.068C69.0141 70.32 69.4855 70.6653 69.8681 71.104C70.2508 71.5333 70.5401 72.0327 70.7361 72.602C70.9321 73.1713 71.0301 73.7687 71.0301 74.394C71.0301 75.01 70.9321 75.6073 70.7361 76.186C70.5495 76.7553 70.2601 77.264 69.8681 77.712C69.4855 78.1507 69.0048 78.5053 68.4261 78.776C67.8568 79.0373 67.1895 79.168 66.4241 79.168C65.6775 79.168 65.0288 79.042 64.4781 78.79C63.9275 78.538 63.4701 78.1973 63.1061 77.768C62.7421 77.3387 62.4668 76.844 62.2801 76.284C62.1028 75.7147 62.0141 75.1173 62.0141 74.492C62.0141 73.8293 62.1121 73.2087 62.3081 72.63C62.5135 72.042 62.8075 71.5333 63.1901 71.104C63.5728 70.6653 64.0441 70.32 64.6041 70.068C65.1641 69.816 65.8035 69.69 66.5221 69.69ZM66.4521 77.796C66.9655 77.796 67.3995 77.712 67.7541 77.544C68.1181 77.3667 68.4168 77.1287 68.6501 76.83C68.8835 76.522 69.0515 76.1627 69.1541 75.752C69.2661 75.3413 69.3221 74.9027 69.3221 74.436C69.3221 73.932 69.2661 73.4747 69.1541 73.064C69.0421 72.6533 68.8695 72.2987 68.6361 72C68.4028 71.7013 68.1041 71.4727 67.7401 71.314C67.3855 71.146 66.9655 71.062 66.4801 71.062C65.9855 71.062 65.5608 71.146 65.2061 71.314C64.8608 71.4727 64.5761 71.6967 64.3521 71.986C64.1375 72.2753 63.9788 72.6207 63.8761 73.022C63.7828 73.4233 63.7361 73.8667 63.7361 74.352C63.7361 75.4907 63.9695 76.3493 64.4361 76.928C64.9028 77.5067 65.5748 77.796 66.4521 77.796ZM72.9508 69.76C73.0721 69.7507 73.2634 69.7413 73.5248 69.732C73.7861 69.7227 74.0614 69.718 74.3508 69.718C74.6401 69.7087 74.9154 69.704 75.1768 69.704C75.4474 69.6947 75.6574 69.69 75.8068 69.69C76.7121 69.69 77.4541 69.7833 78.0328 69.97C78.6208 70.1567 79.1061 70.4133 79.4888 70.74C79.9834 71.1693 80.3428 71.7153 80.5668 72.378C80.7908 73.0407 80.9028 73.7733 80.9028 74.576C80.9028 75.1827 80.8234 75.766 80.6648 76.326C80.5154 76.8767 80.2401 77.362 79.8388 77.782C79.4468 78.202 78.9008 78.538 78.2008 78.79C77.5101 79.0327 76.6234 79.154 75.5408 79.154C75.1488 79.154 74.7288 79.14 74.2808 79.112C73.8328 79.084 73.3894 79.0467 72.9508 79V69.76ZM75.9328 77.824C77.0621 77.824 77.8834 77.5533 78.3968 77.012C78.9194 76.4707 79.1808 75.5887 79.1808 74.366C79.1808 73.8153 79.1248 73.3347 79.0128 72.924C78.9101 72.504 78.7281 72.154 78.4668 71.874C78.2054 71.594 77.8554 71.384 77.4168 71.244C76.9781 71.104 76.4321 71.034 75.7788 71.034C75.6481 71.034 75.4708 71.034 75.2468 71.034C75.0321 71.034 74.8034 71.0387 74.5608 71.048V77.768C74.8221 77.7867 75.0741 77.8007 75.3167 77.81C75.5594 77.8193 75.7648 77.824 75.9328 77.824ZM86.8112 69.69C87.5392 69.69 88.1832 69.816 88.7432 70.068C89.3032 70.32 89.7745 70.6653 90.1572 71.104C90.5399 71.5333 90.8292 72.0327 91.0252 72.602C91.2212 73.1713 91.3192 73.7687 91.3192 74.394C91.3192 75.01 91.2212 75.6073 91.0252 76.186C90.8385 76.7553 90.5492 77.264 90.1572 77.712C89.7745 78.1507 89.2939 78.5053 88.7152 78.776C88.1459 79.0373 87.4785 79.168 86.7132 79.168C85.9665 79.168 85.3179 79.042 84.7672 78.79C84.2165 78.538 83.7592 78.1973 83.3952 77.768C83.0312 77.3387 82.7559 76.844 82.5692 76.284C82.3919 75.7147 82.3032 75.1173 82.3032 74.492C82.3032 73.8293 82.4012 73.2087 82.5972 72.63C82.8025 72.042 83.0965 71.5333 83.4792 71.104C83.8619 70.6653 84.3332 70.32 84.8932 70.068C85.4532 69.816 86.0925 69.69 86.8112 69.69ZM86.7412 77.796C87.2545 77.796 87.6885 77.712 88.0432 77.544C88.4072 77.3667 88.7059 77.1287 88.9392 76.83C89.1725 76.522 89.3405 76.1627 89.4432 75.752C89.5552 75.3413 89.6112 74.9027 89.6112 74.436C89.6112 73.932 89.5552 73.4747 89.4432 73.064C89.3312 72.6533 89.1585 72.2987 88.9252 72C88.6919 71.7013 88.3932 71.4727 88.0292 71.314C87.6745 71.146 87.2545 71.062 86.7692 71.062C86.2745 71.062 85.8499 71.146 85.4952 71.314C85.1499 71.4727 84.8652 71.6967 84.6412 71.986C84.4265 72.2753 84.2679 72.6207 84.1652 73.022C84.0719 73.4233 84.0252 73.8667 84.0252 74.352C84.0252 75.4907 84.2585 76.3493 84.7252 76.928C85.1919 77.5067 85.8639 77.796 86.7412 77.796ZM94.4158 71.986C94.4158 72.182 94.4578 72.35 94.5418 72.49C94.6351 72.63 94.7611 72.7513 94.9198 72.854C95.0785 72.9567 95.2651 73.0547 95.4798 73.148C95.7038 73.232 95.9511 73.3207 96.2218 73.414C96.5578 73.5353 96.8891 73.6753 97.2158 73.834C97.5518 73.9833 97.8505 74.1747 98.1118 74.408C98.3825 74.632 98.6018 74.912 98.7698 75.248C98.9378 75.584 99.0218 75.99 99.0218 76.466C99.0218 76.97 98.9285 77.3947 98.7418 77.74C98.5645 78.0853 98.3218 78.3653 98.0138 78.58C97.7058 78.7853 97.3511 78.9347 96.9498 79.028C96.5485 79.1213 96.1331 79.168 95.7038 79.168C95.0878 79.168 94.5091 79.0933 93.9678 78.944C93.4358 78.7947 92.9785 78.6127 92.5958 78.398L93.0158 76.886C93.3705 77.1567 93.7625 77.3807 94.1918 77.558C94.6305 77.7353 95.1298 77.824 95.6898 77.824C96.2871 77.824 96.7211 77.7213 96.9918 77.516C97.2625 77.3013 97.3978 77.0167 97.3978 76.662C97.3978 76.3913 97.3325 76.1627 97.2018 75.976C97.0711 75.78 96.9078 75.6167 96.7118 75.486C96.5158 75.346 96.3058 75.234 96.0818 75.15C95.8671 75.066 95.6758 74.996 95.5078 74.94C95.2091 74.8467 94.9058 74.7347 94.5978 74.604C94.2898 74.4733 94.0051 74.3053 93.7438 74.1C93.4825 73.8853 93.2678 73.6193 93.0998 73.302C92.9411 72.9847 92.8618 72.588 92.8618 72.112C92.8618 71.664 92.9365 71.286 93.0858 70.978C93.2445 70.67 93.4545 70.4227 93.7158 70.236C93.9865 70.04 94.2991 69.9 94.6538 69.816C95.0178 69.732 95.4098 69.69 95.8298 69.69C96.3431 69.69 96.8378 69.7413 97.3138 69.844C97.7991 69.9467 98.2051 70.0727 98.5318 70.222L98.1538 71.706C97.9858 71.594 97.8038 71.496 97.6078 71.412C97.4118 71.328 97.2065 71.258 96.9918 71.202C96.7865 71.146 96.5765 71.104 96.3618 71.076C96.1565 71.0387 95.9605 71.02 95.7738 71.02C95.3538 71.02 95.0225 71.0993 94.7798 71.258C94.5371 71.4167 94.4158 71.6593 94.4158 71.986Z" fill="#5F5F60"/>
<path d="M139.733 21.4292L118.74 59.3013L96.4387 22.1849L139.733 21.4292Z" fill="#2468EB" fill-opacity="0.81"/>
<circle cx="25.5" cy="74.5" r="17.5" fill="#4673E4" fill-opacity="0.1"/>
<path d="M20.8814 69.0006L18.7596 70.8946L17.9315 70.1562L17 70.9852L18.2938 72.1391L18.7596 72.5348L19.2253 72.1385L21.8129 69.8308L20.8814 69V69.0006ZM23.9348 69.9929V71.1467H32.3445V69.9929H23.9348ZM20.8814 73.616L18.7596 75.5106L17.9315 74.7698L17 75.6006L18.2938 76.7545L18.7596 77.1502L19.2253 76.7539L21.8129 74.4462L20.8814 73.6154V73.616ZM23.9348 74.6083V75.7621H32.3445V74.6083H23.9348ZM20.8814 78.2314L18.7596 80.1254L17.9315 79.387L17 80.216L18.2938 81.3699L18.7596 81.7656L19.2253 81.3693L21.8129 79.0616L20.8814 78.2308V78.2314ZM23.9348 79.2237V80.3775H32.3445V79.2237H23.9348Z" fill="#4673E4"/>
</svg>
